<?xml version="1.0" encoding="utf-8"?>
<!-- Generator: Adobe Illustrator 20.1.0, SVG Export Plug-In . SVG Version: 6.00 Build 0)  -->
<!DOCTYPE svg PUBLIC "-//W3C//DTD SVG 1.1//EN" "http://www.w3.org/Graphics/SVG/1.1/DTD/svg11.dtd">
<svg version="1.1" id="Layer_1" xmlns="http://www.w3.org/2000/svg" xmlns:xlink="http://www.w3.org/1999/xlink" x="0px" y="0px"
	 width="430.4px" height="367.1px" viewBox="0 0 430.4 367.1" enable-background="new 0 0 430.4 367.1" xml:space="preserve">
<ellipse transform="matrix(0.8932 -0.4496 0.4496 0.8932 -139.7628 61.4169)" fill="#FFFF00" cx="59.4" cy="324.9" rx="37.6" ry="37.6"/>
<ellipse transform="matrix(0.8932 -0.4496 0.4496 0.8932 -103.7806 104.1761)" fill="#FFFF00" cx="167.4" cy="270.6" rx="37.6" ry="37.6"/>
<ellipse transform="matrix(0.8932 -0.4496 0.4496 0.8932 -52.5752 98.425)" fill="#FFFF00" cx="180.9" cy="159.9" rx="27.7" ry="27.7"/>
<ellipse transform="matrix(0.8932 -0.4496 0.4496 0.8932 -42.4422 52.5593)" fill="#FFFF00" cx="89.4" cy="115.6" rx="21.4" ry="21.4"/>
<ellipse transform="matrix(0.8932 -0.4496 0.4496 0.8932 -6.46 95.3185)" fill="#FFFF00" cx="197.4" cy="61.3" rx="21.4" ry="21.4"/>
<ellipse transform="matrix(0.8932 -0.4496 0.4496 0.8932 1.6669 52.7799)" fill="#FFFF00" cx="111.9" cy="22.9" rx="14.7" ry="14.7"/>
<ellipse transform="matrix(0.8932 -0.4496 0.4496 0.8932 -17.0191 140.6778)" fill="#FFFF00" cx="287.7" cy="106.2" rx="27.7" ry="27.7"/>
<ellipse transform="matrix(0.8932 -0.4496 0.4496 0.8932 -89.3592 54.7131)" fill="#FFFF00" cx="70.5" cy="215.5" rx="27.7" ry="27.7"/>
<ellipse transform="matrix(0.8932 -0.4496 0.4496 0.8932 -67.7983 146.9353)" fill="#FFFF00" cx="275.4" cy="216.2" rx="37.6" ry="37.6"/>
<ellipse transform="matrix(0.8932 -0.4496 0.4496 0.8932 -31.8161 189.6945)" fill="#FFFF00" cx="383.4" cy="161.8" rx="37.6" ry="37.6"/>
<g>
</g>
<g>
</g>
<g>
</g>
<g>
</g>
<g>
</g>
<g>
</g>
<g>
</g>
<g>
</g>
<g>
</g>
<g>
</g>
<g>
</g>
<g>
</g>
<g>
</g>
<g>
</g>
<g>
</g>
</svg>
